<?xml version="1.0"?>
<svg xmlns="http://www.w3.org/2000/svg" xmlns:xlink="http://www.w3.org/1999/xlink" viewBox="697 529 277 393" width="277" height="393"><path d="M875.893 589.8C875.835 563.966 903.477 551.818 920.329 570.346C925.26 575.817 927.755 583.059 927.238 590.407C926.157 605.256 914.998 611.572 902.224 614.689C916.407 636.306 920.352 651.986 919.179 677.821L919.054 678.406C919.735 683.234 919.429 696.364 919.424 701.769L919.374 746.683L919.393 797.518C919.396 804.984 919.783 819.633 918.771 826.413C916.537 840.777 910.822 854.375 902.125 866.023C887.664 885.519 865.961 898.372 841.914 901.68C818.332 904.945 795.033 898.207 776.161 883.859C757.562 869.846 745.345 848.972 742.236 825.893C741.506 823.09 741.903 798.73 741.907 794.219L741.838 720.372C741.771 710.169 742.156 696.717 741.527 686.865C741.62 684.871 741.859 682.691 742.035 680.685C740.569 653.422 743.66 637.264 758.683 614.413C752.099 613.285 746.679 611.572 741.612 606.897C736.416 602.17 733.381 595.523 733.21 588.501C733.11 581.502 735.793 574.749 740.669 569.727C745.722 564.562 752.683 561.712 759.907 561.848C768.336 562.045 776.628 566.872 780.944 574.032C784.427 579.809 784.602 584.114 784.411 590.488C799.142 581.646 812.783 577.964 829.825 577.499C848.627 578.056 858.991 581.084 875.893 589.8Z"/><path fill="#23173F" d="M875.893 589.8C875.835 563.966 903.477 551.818 920.329 570.346C925.26 575.817 927.755 583.059 927.238 590.407C926.157 605.256 914.998 611.572 902.224 614.689C916.407 636.306 920.352 651.986 919.179 677.821C917.224 676.607 916.373 672.981 915.719 670.598C909.846 649.216 880.496 629.575 858.722 637.599C851.566 640.236 836.477 655.155 829.858 660.951C830.168 657.182 829.917 652.933 829.929 649.123C830.007 625.282 829.313 601.329 829.825 577.499C848.627 578.056 858.991 581.084 875.893 589.8Z"/><path fill="#130C1F" d="M875.893 589.8C875.835 563.966 903.477 551.818 920.329 570.346C925.26 575.817 927.755 583.059 927.238 590.407C926.157 605.256 914.998 611.572 902.224 614.689C900.65 613.234 898.048 611.031 897.727 609.143C899.233 607.955 899.821 608.316 902.148 608.099C899.864 607.881 898.435 607.823 896.127 607.905C893.916 605.793 882.446 595.004 881.616 593.347C880.193 593.197 877.164 590.757 875.893 589.8Z"/><path fill="#5D31D5" d="M875.893 589.8C875.835 563.966 903.477 551.818 920.329 570.346C925.26 575.817 927.755 583.059 927.238 590.407C926.157 605.256 914.998 611.572 902.224 614.689C900.65 613.234 898.048 611.031 897.727 609.143C899.233 607.955 899.821 608.316 902.148 608.099C910.876 607.116 918.256 599.399 918.522 590.751C919.096 572.138 897.761 562.994 885.26 577.544C880.78 582.759 881.102 586.928 881.616 593.347C880.193 593.197 877.164 590.757 875.893 589.8Z"/><path fill="#5D31D5" d="M758.683 614.413C752.099 613.285 746.679 611.572 741.612 606.897C736.416 602.17 733.381 595.523 733.21 588.501C733.11 581.502 735.793 574.749 740.669 569.727C745.722 564.562 752.683 561.712 759.907 561.848C768.336 562.045 776.628 566.872 780.944 574.032C784.427 579.809 784.602 584.114 784.411 590.488C799.142 581.646 812.783 577.964 829.825 577.499C829.313 601.329 830.007 625.282 829.929 649.123C829.917 652.933 830.168 657.182 829.858 660.951C827.59 659.506 822.919 654.846 820.964 652.737C807.165 637.846 796.326 632.171 775.917 639.083C762.227 644.627 751.372 655.489 745.836 669.182C744.124 673.341 743.416 676.635 742.035 680.685C740.569 653.422 743.66 637.264 758.683 614.413Z"/><path fill="#130C1F" d="M759.521 570.128C772.024 569.55 781.629 580.277 779.58 592.851L779.453 593.728C775.302 598.002 768.286 604.634 763.543 608.008C737.864 608.156 734.494 574.74 759.521 570.128Z"/><path fill="#23173F" d="M919.054 678.406C919.735 683.234 919.429 696.364 919.424 701.769L919.374 746.683L919.393 797.518C919.396 804.984 919.783 819.633 918.771 826.413C907.969 826.572 898.775 826.102 891.016 817.182C887.781 813.479 885.602 808.973 884.708 804.138C883.769 799.191 883.889 775.486 884.05 769.453C884.443 754.712 883.28 735.7 884.402 721.506C887.507 717.141 902.326 704.745 907.047 699.915C908.854 698.066 917.243 689.965 918.913 688.534C918.849 685.004 918.744 681.93 919.054 678.406Z"/><path fill="#5D31D5" d="M741.527 686.865C741.668 687.383 741.912 688.368 742.311 688.774C753.141 699.791 764.625 710.361 775.494 721.328L775.535 775.157C775.546 781.475 775.995 798.177 774.816 803.787C773.714 809.099 771.046 813.96 767.155 817.742C760.857 823.923 751.533 825.111 743.247 825.204C742.703 825.21 742.488 825.554 742.236 825.893C741.506 823.09 741.903 798.73 741.907 794.219L741.838 720.372C741.771 710.169 742.156 696.717 741.527 686.865Z"/><path fill="#23173F" d="M742.035 680.685C743.416 676.635 744.124 673.341 745.836 669.182C751.372 655.489 762.227 644.627 775.917 639.083C775.424 666.495 775.283 693.912 775.494 721.328C764.625 710.361 753.141 699.791 742.311 688.774C741.912 688.368 741.668 687.383 741.527 686.865C741.62 684.871 741.859 682.691 742.035 680.685Z"/><path fill="#5D31D5" d="M814.83 672.712C819.669 673.131 824.682 672.817 829.549 672.914L829.614 685.067L816.67 685.521C803.774 694.824 809.192 703.998 819.338 712.368C822.055 714.333 827.015 719.257 829.362 721.676C829.324 726.442 829.093 730.481 829.282 735.305C825.57 735.169 814.964 735.44 812.259 734.745C808.994 732.978 802.675 728.789 802.159 724.761C800.718 712.438 801.623 699.287 801.875 686.842C802.032 679.101 807.918 674.56 814.83 672.712Z"/><path fill="#23173F" d="M819.338 712.368C822.055 714.333 827.015 719.257 829.362 721.676C829.324 726.442 829.093 730.481 829.282 735.305C825.57 735.169 814.964 735.44 812.259 734.745C813.107 729.606 816.945 716.79 819.338 712.368Z"/><path fill="#23173F" d="M814.83 672.712C820.114 671.786 826.605 672.418 831.961 672.663C838.675 673.041 845.302 671.532 851.214 675.746C853.997 677.643 857.219 681.546 857.524 685.05C858.372 694.789 857.814 705.049 857.973 714.762C858.328 736.438 848.961 735.145 832.304 735.451C832.228 730.652 832.08 725.747 832.262 720.96C840.131 713.412 858.959 701.834 847.409 688.026C844.085 684.053 834.683 684.969 829.614 685.067L829.549 672.914C824.682 672.817 819.669 673.131 814.83 672.712Z"/><path fill="#F7113B" d="M863.814 643.273C871.209 642.045 878.221 646.975 879.569 654.349C880.917 661.722 876.101 668.814 868.75 670.281C863.888 671.251 858.88 669.524 855.649 665.764C852.418 662.003 851.466 656.792 853.158 652.132C854.85 647.471 858.923 644.085 863.814 643.273Z"/><path fill="#F7113B" d="M792.463 643.33C799.796 642.665 806.331 647.949 807.215 655.259C808.1 662.569 803.015 669.259 795.734 670.363C790.827 671.107 785.903 669.122 782.883 665.183C779.863 661.243 779.225 655.973 781.218 651.427C783.211 646.881 787.519 643.779 792.463 643.33Z"/><path fill="#23173F" d="M417.459 46.3925C431.957 60.6157 447.587 73.9923 462.193 88.0819C477.785 102.697 496.156 117.968 510.866 132.708L511.745 133.171C514.296 131.275 523.715 122.085 526.491 119.542L560.27 88.6122C565.881 83.3183 571.994 77.4493 577.811 72.4592C584.411 66.1358 598.697 52.4598 605.455 46.9304C606.527 89.6327 621.008 134.231 587.971 168.845C585.639 171.294 583.176 173.614 580.591 175.795C591.316 186.067 604.234 197.904 614.41 208.319C600.146 216.601 585.105 224.916 571.034 233.36C570.168 270.862 571.81 309.727 570.616 347.074C568.474 407.999 491.573 427.167 460.74 376.18C455.38 367.315 453.698 359.531 452.766 349.405C451.862 344.795 452.976 324.197 452.987 318.517L452.512 236.771L452.442 233.495C438.119 224.916 423.733 216.796 409.534 208.226C419.134 198.601 432.408 185.25 442.678 176.824C412.4 149.345 412.789 121.677 415.272 84.1074C416.167 71.5459 416.896 58.9732 417.459 46.3925Z"/><path fill="#5D31D5" d="M417.459 46.3925C431.957 60.6157 447.587 73.9923 462.193 88.0819C477.785 102.697 496.156 117.968 510.866 132.708L511.745 133.171L511.636 179.948C511.642 185.546 511.992 197.669 511.566 202.69L511.929 202.561C511.893 214.178 512.876 267.848 509.718 274.57C510.159 276.375 510.513 277.27 510.295 279.133C499.954 268.778 486.607 256.714 475.808 246.748C472.91 244.074 456.478 235.236 452.442 233.495C438.119 224.916 423.733 216.796 409.534 208.226C419.134 198.601 432.408 185.25 442.678 176.824C412.4 149.345 412.789 121.677 415.272 84.1074C416.167 71.5459 416.896 58.9732 417.459 46.3925Z"/><path fill="#23173F" d="M459.664 170.589C471.84 176.955 484.348 186.569 496.567 193.248C501.559 195.977 506.344 200.283 511.566 202.69L511.929 202.561C511.893 214.178 512.876 267.848 509.718 274.57C504.554 259.205 499.775 240.971 495.21 225.229C475.243 215.348 454.428 206.208 434.101 196.817C441.596 188.322 451.401 178.29 459.664 170.589Z"/><path fill="#08F7FE" d="M461.305 184.175C469.694 186.698 479.341 191.247 488.332 193.892C491.867 200.761 496.557 207.196 499.527 213.217C495.341 212.212 490.322 210.573 486.008 209.398L478.508 207.377C476.263 206.788 474.035 206.212 471.823 205.506C468.341 199.972 463.833 190.349 461.305 184.175Z"/><path fill="#23173F" d="M462.193 88.0819C477.785 102.697 496.156 117.968 510.866 132.708C497.413 132.897 485.664 135.882 473.251 140.662C471.085 132.693 469.185 122.316 467.238 114.14C465.715 107.745 462.412 93.9008 462.193 88.0819Z"/><path d="M426.634 69.1682C437.951 75.5629 451.972 94.3243 455.531 107.274C458.779 119.089 461.931 135.68 460.413 148.32C460.024 151.564 455.156 161.435 453.483 164.7C452.01 166.99 450.977 168.085 449.188 170.072C423 149.826 423.412 129.047 424.902 98.7456C425.294 88.8765 425.872 79.0156 426.634 69.1682Z"/><path d="M512.588 278.954C520.449 271.611 528.442 264.41 536.562 257.355C540.612 253.767 545.545 249.094 549.771 245.91C555.534 241.567 563.353 237.814 569.23 233.992L570.157 234.052C570.483 234.94 570.607 236.131 570.073 236.829C563.046 246.021 549.136 255.193 541.939 264.213L541.882 303.989C541.914 327.077 539.349 347.642 570.616 347.074C568.474 407.999 491.573 427.167 460.74 376.18C455.38 367.315 453.698 359.531 452.766 349.405C451.862 344.795 452.976 324.197 452.987 318.517L452.512 236.771L452.442 233.495C456.478 235.236 472.91 244.074 475.808 246.748C486.607 256.714 499.954 268.778 510.295 279.133L510.592 279.9C512.056 279.778 511.388 280.027 512.588 278.954Z"/><path fill="#5D31D5" d="M452.512 236.771C460.612 243.646 472.115 255.535 480.032 263.281L480.065 303.935C480.14 314.54 482.01 328.467 475.832 337.369C471.272 343.939 464.497 346.495 456.804 346.931C453.941 347.114 453.287 346.721 452.766 349.405C451.862 344.795 452.976 324.197 452.987 318.517L452.512 236.771Z"/><path fill="#130C1F" d="M564.119 170.349C568.386 174.687 572.465 179.302 576.586 183.792C580.269 187.805 585.391 192.546 588.403 196.975C581.032 201.349 572.432 204.943 564.548 208.348C552.352 213.615 540.834 219.462 528.319 224.026C522.583 241.053 518.364 259.411 512.344 276.478C511.991 277.481 512.184 278.078 512.588 278.954C511.388 280.027 512.056 279.778 510.592 279.9L510.295 279.133C510.513 277.27 510.159 276.375 509.718 274.57C512.876 267.848 511.893 214.178 511.929 202.561C528.799 192.174 546.894 180.071 564.119 170.349Z"/><path fill="#08F7FE" d="M559.544 184.584C560.893 186.002 552.075 203.451 550.786 205.522C544.066 208.158 531.754 211.214 524.447 212.881C522.988 211.61 533.176 196.312 534.633 194.29L534.971 194.149C542.498 190.932 551.653 187.961 559.544 184.584Z"/><path d="M596.7 69.0726C597.248 78.1865 597.702 87.3057 598.063 96.4288C598.426 104.877 598.918 115.493 598.079 123.829C596.595 138.572 586.403 160.93 572.723 168.245C569.602 160.555 566.769 152.558 561.572 146.052C561.046 131.279 564.914 113.342 568.595 99.1965C571.775 96.7231 574.571 90.9382 577.203 88.036C582.405 82.2991 590.551 73.392 596.7 69.0726Z"/><path fill="#5D31D5" d="M560.27 88.6122C565.881 83.3183 571.994 77.4493 577.811 72.4592C577.913 74.8979 575.408 79.3525 574.321 81.7629C571.672 87.6398 569.67 92.8127 568.595 99.1965C564.914 113.342 561.046 131.279 561.572 146.052C558.647 145.106 552.673 142.155 549.658 140.77C551.394 127.82 560.173 99.4508 560.27 88.6122Z"/><path d="M133.615 640.031C138.911 610.328 162.061 590.876 192.06 589.966C221.051 590.893 246.373 611.273 250.672 640.434C251.629 649.717 251.691 674.233 251.318 683.864C251.507 697.541 251.61 711.22 251.625 724.898C253.37 724.37 264.988 713.886 267.168 711.967C272.83 707.044 278.39 702.148 284.266 697.477C283.97 710.931 283.858 724.389 283.929 737.846C278.647 742.52 271.623 748.395 266.88 753.349L267.38 757.373C272.428 753.162 278.773 747.219 283.88 743.612C284.147 757.039 283.959 770.437 284.042 783.857C279.005 788.466 271.119 794.538 266.876 798.802L267.328 803.375C272.805 798.501 278.358 793.713 283.986 789.015C284.007 802.368 283.819 816.293 284.075 829.602C273.941 839.686 261.042 849.533 250.328 859.553C246.497 879.311 237.666 883.482 223.467 896.208C217.681 901.394 211.409 906.572 205.709 911.827C205.67 904.769 205.392 895.983 205.737 889.062L205.287 888.536C194.751 891.06 188.247 891.073 177.991 888.2C177.398 890.65 177.619 893.089 177.675 895.632C178.009 897.132 177.797 909.515 177.766 911.772C168.48 903.949 159.354 895.938 150.393 887.745C138.843 877.203 137.047 876.041 133.42 860.296C133.04 858.883 102.725 833.06 98.8145 829.551C98.1651 817.455 98.5762 800.872 98.5379 788.526C103.806 793.351 110.393 798.653 115.918 803.334L116.101 798.817C111.165 793.823 104.055 788.162 98.5436 783.502L98.7115 742.639C103.863 746.602 110.697 752.938 115.927 757.357C116.038 756.516 116.102 756.085 116.14 755.25L116.23 753.054C111.248 747.826 103.91 743.629 98.5137 737.079L98.618 697.25C110.132 706.658 121.55 716.771 132.965 726.399L133.071 719.73C132.592 705.719 132.904 689.994 132.889 675.867C133.045 666.678 132.325 648.304 133.615 640.031Z"/><path fill="#5D31D5" d="M133.615 640.031C138.911 610.328 162.061 590.876 192.06 589.966C221.051 590.893 246.373 611.273 250.672 640.434C247.751 640.404 233.462 640.132 231.439 640.574C220.239 643.021 201.951 657.833 192.024 662.109C180.066 655.247 168.486 647.746 156.753 640.528C149.139 640.554 141.287 640.146 133.615 640.031Z"/><path fill="#23173F" d="M192.06 589.966C221.051 590.893 246.373 611.273 250.672 640.434C247.751 640.404 233.462 640.132 231.439 640.574C220.239 643.021 201.951 657.833 192.024 662.109C192.504 655.236 192.149 644.367 192.143 637.102L192.06 589.966Z"/><path fill="#130C1F" d="M98.5379 788.526C103.806 793.351 110.393 798.653 115.918 803.334L116.101 798.817C118.348 800.381 131.592 811.91 133.123 813.95C133.092 815.133 133.297 814.622 132.525 815.492L132.413 816.667C134.534 819.103 136.849 821.382 139.335 823.441C152.256 834.146 164.663 845.693 177.565 856.376L177.533 882.097C177.603 883.416 177.701 887.125 177.991 888.2C177.398 890.65 177.619 893.089 177.675 895.632C178.009 897.132 177.797 909.515 177.766 911.772C168.48 903.949 159.354 895.938 150.393 887.745C138.843 877.203 137.047 876.041 133.42 860.296C133.04 858.883 102.725 833.06 98.8145 829.551C98.1651 817.455 98.5762 800.872 98.5379 788.526Z"/><path fill="#23173F" d="M116.101 798.817C118.348 800.381 131.592 811.91 133.123 813.95C133.092 815.133 133.297 814.622 132.525 815.492L132.413 816.667C134.534 819.103 136.849 821.382 139.335 823.441C152.256 834.146 164.663 845.693 177.565 856.376L177.533 882.097C175.486 880.816 172.415 878.395 170.563 876.81C156.248 864.56 141.847 852.388 127.667 839.979C123.961 836.735 119.909 833.154 115.965 830.303C115.629 821.568 116.102 812.271 115.918 803.334L116.101 798.817Z"/><path fill="#23173F" d="M133.42 860.296C136.476 862.107 140.788 865.88 143.497 868.461C151.872 876.444 160.634 884.027 169.504 891.462C171.14 892.833 176.453 898.844 177.675 895.632C178.009 897.132 177.797 909.515 177.766 911.772C168.48 903.949 159.354 895.938 150.393 887.745C138.843 877.203 137.047 876.041 133.42 860.296Z"/><path fill="#130C1F" d="M267.328 803.375C272.805 798.501 278.358 793.713 283.986 789.015C284.007 802.368 283.819 816.293 284.075 829.602C273.941 839.686 261.042 849.533 250.328 859.553C246.497 879.311 237.666 883.482 223.467 896.208C217.681 901.394 211.409 906.572 205.709 911.827C205.67 904.769 205.392 895.983 205.737 889.062L205.287 888.536C207.253 883.297 205.016 864.018 206.301 856.354C218.896 843.332 238.783 829.426 251.738 816.136C252.127 815.737 251.616 814.896 251.334 814.057C251.208 811.756 264.456 800.528 266.876 798.802L267.328 803.375Z"/><path fill="#23173F" d="M251.334 814.057C251.208 811.756 264.456 800.528 266.876 798.802L267.328 803.375C267.457 812.21 267.328 821.046 266.943 829.874L218.14 871.456C214.153 874.837 210.769 879.386 206.517 881.791C206.648 873.312 206.576 864.83 206.301 856.354C218.896 843.332 238.783 829.426 251.738 816.136C252.127 815.737 251.616 814.896 251.334 814.057Z"/><path fill="#23173F" d="M206.265 897.416C216.151 891.11 231.022 875.617 240.701 867.913C243.826 865.425 246.951 861.586 250.328 859.553C246.497 879.311 237.666 883.482 223.467 896.208C217.681 901.394 211.409 906.572 205.709 911.827C205.67 904.769 205.392 895.983 205.737 889.062C206.414 890.659 206.243 895.419 206.265 897.416Z"/><path fill="#23173F" d="M267.38 757.373C272.428 753.162 278.773 747.219 283.88 743.612C284.147 757.039 283.959 770.437 284.042 783.857C279.005 788.466 271.119 794.538 266.876 798.802C264.456 800.528 251.208 811.756 251.334 814.057C247.066 817.156 243.144 820.668 239.216 824.179C228.228 833.998 216.639 843.177 206.075 853.464C206.033 848.267 205.816 842.001 205.955 836.888L205.979 810.267C217.41 798.647 238.991 783.175 250.851 770.688C250.984 769.871 251.096 769.181 251.188 768.616C251.321 765.849 264.072 755.117 266.88 753.349L267.38 757.373Z"/><path fill="#130C1F" d="M267.38 757.373C272.428 753.162 278.773 747.219 283.88 743.612C284.147 757.039 283.959 770.437 284.042 783.857C279.005 788.466 271.119 794.538 266.876 798.802C264.456 800.528 251.208 811.756 251.334 814.057C247.066 817.156 243.144 820.668 239.216 824.179C228.228 833.998 216.639 843.177 206.075 853.464C206.033 848.267 205.816 842.001 205.955 836.888C209.318 834.906 211.923 832.049 214.902 829.557C227.379 819.119 238.941 807.71 251.644 797.518C257.028 793.199 262.897 788.691 267.358 783.442C267.446 774.332 266.827 766.93 267.38 757.373Z"/><defs><linearGradient id="gradient_0" gradientUnits="userSpaceOnUse" x1="123.42384" y1="765.11426" x2="153.85355" y2="739.30219"><stop offset="0" stop-color="#120D20"/><stop offset="1" stop-color="#21163D"/></linearGradient></defs><path fill="url(#gradient_0)" d="M98.618 697.25C110.132 706.658 121.55 716.771 132.965 726.399L133.071 719.73C133.551 722.882 133.598 723.685 133.55 726.88C147.106 739.228 164.589 753.139 177.45 765.737C177.524 779.934 177.75 794.449 177.639 808.627C169.026 797.883 154.229 787.779 144.049 778.336C140.587 775.124 136.295 772.011 133.602 768.115C133.125 769.107 132.643 770.096 132.156 771.083C126.933 767.165 121.829 761.982 116.661 757.878C116.416 757.704 116.171 757.531 115.927 757.357C116.038 756.516 116.102 756.085 116.14 755.25L116.23 753.054C111.248 747.826 103.91 743.629 98.5137 737.079L98.618 697.25Z"/><path fill="#23173F" d="M116.23 753.054C122.577 757.579 127.799 762.923 133.602 768.115C133.125 769.107 132.643 770.096 132.156 771.083C126.933 767.165 121.829 761.982 116.661 757.878C116.416 757.704 116.171 757.531 115.927 757.357C116.038 756.516 116.102 756.085 116.14 755.25L116.23 753.054Z"/><path fill="#130C1F" d="M98.7115 742.639C103.863 746.602 110.697 752.938 115.927 757.357C116.171 757.531 116.416 757.704 116.661 757.878C121.829 761.982 126.933 767.165 132.156 771.083C146.285 784.395 164.56 797.439 177.794 810.448L177.539 836.482C178.102 840.278 177.616 848.526 177.458 852.645C170.239 845.876 161.554 839.4 153.94 832.965C150.416 829.987 135.381 815.632 132.525 815.492C133.297 814.622 133.092 815.133 133.123 813.95C131.592 811.91 118.348 800.381 116.101 798.817C111.165 793.823 104.055 788.162 98.5436 783.502L98.7115 742.639Z"/><path fill="#23173F" d="M116.661 757.878C121.829 761.982 126.933 767.165 132.156 771.083C146.285 784.395 164.56 797.439 177.794 810.448L177.539 836.482C174.738 835.673 120.859 788.403 116.326 783.157C115.87 775.197 116.243 765.841 116.661 757.878Z"/><path fill="#23173F" d="M267.168 711.967C272.83 707.044 278.39 702.148 284.266 697.477C283.97 710.931 283.858 724.389 283.929 737.846C278.647 742.52 271.623 748.395 266.88 753.349C264.072 755.117 251.321 765.849 251.188 768.616C249.034 768.983 209.895 803.429 205.911 807.26C205.868 802.969 205.591 796.165 205.909 792.071C206.027 783.387 205.936 774.507 205.943 765.806C215.919 755.283 230.884 744.234 241.532 734.056C244.663 731.064 248.738 728.028 251.625 724.898C253.37 724.37 264.988 713.886 267.168 711.967Z"/><path fill="#130C1F" d="M267.168 711.967C272.83 707.044 278.39 702.148 284.266 697.477C283.97 710.931 283.858 724.389 283.929 737.846C278.647 742.52 271.623 748.395 266.88 753.349C264.072 755.117 251.321 765.849 251.188 768.616C249.034 768.983 209.895 803.429 205.911 807.26C205.868 802.969 205.591 796.165 205.909 792.071C210.268 787.285 222.071 777.421 227.538 772.709C239.963 762.002 253.945 748.99 267.237 739.62C267.606 735.158 268.13 716.05 267.168 711.967Z"/><path fill="#23173F" d="M133.615 640.031C141.287 640.146 149.139 640.554 156.753 640.528C168.486 647.746 180.066 655.247 192.024 662.109C192.085 664.822 192.223 670.303 192.609 672.887L192.234 673.004C183.947 672.808 175.708 672.553 167.418 672.741C169.741 680.613 173.014 689.017 175.927 696.754C170.334 695.579 166.419 694.82 160.825 693.209C148.896 689.775 142.726 681.746 132.889 675.867C133.045 666.678 132.325 648.304 133.615 640.031Z"/><path fill="#F7113B" d="M148.645 647.608C160.339 648.223 167.147 654.36 174.886 662.527C176.285 664.004 180.15 666.592 177.123 667.1C173.983 666.955 171.133 666.712 168.003 666.352C167.417 666.264 166.832 666.175 166.246 666.087C161.331 665.569 156.646 663.807 154.205 659.191C152.477 655.922 151.417 651.838 147.98 649.777C147.229 649.327 145.569 648.381 147.443 647.933C147.844 647.825 148.244 647.717 148.645 647.608Z"/><path fill="#130C1F" d="M192.024 662.109C201.951 657.833 220.239 643.021 231.439 640.574C233.462 640.132 247.751 640.404 250.672 640.434C251.629 649.717 251.691 674.233 251.318 683.864C250.384 682.458 250.726 678.09 250.736 676.228C247.536 675.98 242.974 681.758 240.243 683.705C230.083 690.945 220.195 694.222 208.099 696.435C211.085 688.39 214.502 680.715 217.273 672.544C208.799 672.664 201.225 673.073 192.609 672.887C192.223 670.303 192.085 664.822 192.024 662.109Z"/><path fill="#08F7FE" d="M232.694 647.589C233.667 647.647 235.602 647.844 236.256 648.674C236.237 648.733 236.217 648.793 236.197 648.852C232.876 651.128 231.359 657.213 229.253 660.002C224.461 666.345 218.568 666.758 211.4 667.008C210.238 666.968 208.1 667.233 207.238 666.255C207.143 665.318 210.809 661.394 211.57 660.555C218.308 653.12 222.665 649.585 232.694 647.589Z"/><path fill="#3A266B" d="M192.609 672.887C201.225 673.073 208.799 672.664 217.273 672.544C214.502 680.715 211.085 688.39 208.099 696.435C205.605 703.708 202.149 711.695 199.404 718.957C198.027 722.6 194.19 732.593 192.38 735.571L191.949 737.046L191.355 737.24C186.355 724.815 180.194 709.24 175.927 696.754C173.014 689.017 169.741 680.613 167.418 672.741C175.708 672.553 183.947 672.808 192.234 673.004L192.609 672.887Z"/><path fill="#23173F" d="M192.609 672.887C201.225 673.073 208.799 672.664 217.273 672.544C214.502 680.715 211.085 688.39 208.099 696.435C205.605 703.708 202.149 711.695 199.404 718.957C198.027 722.6 194.19 732.593 192.38 735.571C191.777 715.305 192.337 693.446 192.234 673.004L192.609 672.887Z"/><path d="M235.155 60.4077C235.581 59.1765 236.029 57.0233 236.919 56.5845C238.642 59.3788 244.391 74.597 245.973 78.4297C254.393 98.8299 261.678 119.423 270.442 139.752C267.175 145.821 265.113 150.553 262.853 157.071C273.66 168.248 290.065 185.655 300 197.456C290.075 194.555 280.094 192.057 270.132 189.161C280.628 199.999 290.12 210.286 300.35 221.245C288.337 219.717 278.051 217.684 266.231 215.062C271.597 223.706 278.296 229.692 283.904 237.855C273.046 235.757 261.89 232.478 251.002 230.138L250.932 311.226C250.938 321.018 251.573 341.648 250.731 350.269C249.525 364.09 244.408 376.607 234.881 386.838C224.249 398.232 209.534 404.948 193.959 405.511C178.481 406.047 162.836 400.608 151.578 389.866C139.872 378.846 133.118 363.561 132.85 347.486C133.333 328.409 132.97 307.892 132.872 288.756L132.938 238.322C132.82 236.261 132.986 233.329 133.042 231.201C122.827 233.789 111.249 235.334 100.57 237.992C106.56 230.156 113.43 223.254 119.298 215.334C111.959 217.224 90.3764 220.618 83.2684 221.193C92.6888 210.943 105.37 199.344 113.801 189.252C104.889 192.3 93.6014 195.093 84.0116 198.207C96.2242 185.017 111.68 169.731 123.109 156.606C125.007 158.529 126.087 158.866 128.496 160.032C143.414 168.468 158.151 178.24 172.872 187.056C176.581 189.277 188.517 197.696 191.401 198.513L191.55 198.202C192.045 171.112 191.592 142.636 191.575 115.469C199.994 115.811 208.13 116.521 216.141 119.371C217.372 116.67 219.596 108.492 220.616 105.288C224.04 94.6872 227.406 84.0672 230.713 73.4291C231.542 70.7845 233.93 62.5146 235.155 60.4077Z"/><path fill="#23173F" d="M235.155 60.4077C235.581 59.1765 236.029 57.0233 236.919 56.5845C238.642 59.3788 244.391 74.597 245.973 78.4297C254.393 98.8299 261.678 119.423 270.442 139.752C267.175 145.821 265.113 150.553 262.853 157.071C273.66 168.248 290.065 185.655 300 197.456C290.075 194.555 280.094 192.057 270.132 189.161C280.628 199.999 290.12 210.286 300.35 221.245C288.337 219.717 278.051 217.684 266.231 215.062C271.597 223.706 278.296 229.692 283.904 237.855C273.046 235.757 261.89 232.478 251.002 230.138L250.932 311.226C250.938 321.018 251.573 341.648 250.731 350.269C250.611 349.68 250.48 348.031 250.188 347.6C249.767 346.98 235.497 347.45 229.169 341.06C226.148 338.01 223.84 333.703 222.983 329.495C221.322 321.334 222.031 311.816 222.021 303.497C221.987 290.379 222.021 277.26 222.123 264.142C224.64 261.251 231.309 255.262 234.478 252.347C238.614 248.543 246.247 240.44 250.431 237.473L250.553 229.881C245.357 232.427 226.689 246.273 221.663 250.194C220.382 246.395 221.026 236.476 220.857 231.945C220.785 230.006 220.97 229.886 222 228.959C220.91 226.865 221.471 225.078 220.177 222.834C213.176 210.7 201.28 214.961 191.056 212.381C191.031 207.494 191.121 203.389 191.401 198.513L191.55 198.202C192.045 171.112 191.592 142.636 191.575 115.469C199.994 115.811 208.13 116.521 216.141 119.371C217.372 116.67 219.596 108.492 220.616 105.288C224.04 94.6872 227.406 84.0672 230.713 73.4291C231.542 70.7845 233.93 62.5146 235.155 60.4077Z"/><path fill="#130C1F" d="M191.55 198.202C194.802 196.979 211.859 185.873 216.301 183.173C229.144 175.367 242.51 167.725 255.29 159.87C256.912 168.84 264.926 194.799 268.16 203.848C253.942 211.69 236.303 221.949 222 228.959C220.91 226.865 221.471 225.078 220.177 222.834C213.176 210.7 201.28 214.961 191.056 212.381C191.031 207.494 191.121 203.389 191.401 198.513L191.55 198.202Z"/><path fill="#F7113B" d="M242.45 176.016C243.624 177.375 239.212 193.891 238.465 196.66C229.48 198.965 219.602 202.704 210.83 204.356C210.723 204.27 210.616 204.183 210.51 204.097C213.214 197.568 239.29 178.13 242.45 176.016Z"/><path d="M216.141 119.371C217.372 116.67 219.596 108.492 220.616 105.288C224.04 94.6872 227.406 84.0672 230.713 73.4291C231.542 70.7845 233.93 62.5146 235.155 60.4077L236.157 60.6075L236.915 60.2553C237.098 60.5037 252.604 139.809 253.625 146.123C246.788 140.112 239.964 134.194 233.002 128.323C231.456 127.019 226.149 123.551 225.684 123.095C223.387 122.576 218.535 120.379 216.141 119.371Z"/><path fill="#5D31D5" d="M216.141 119.371C217.372 116.67 219.596 108.492 220.616 105.288C224.04 94.6872 227.406 84.0672 230.713 73.4291C231.542 70.7845 233.93 62.5146 235.155 60.4077L236.157 60.6075C232.206 81.4733 229.416 102.378 225.684 123.095C223.387 122.576 218.535 120.379 216.141 119.371Z"/><path fill="#23173F" d="M123.109 156.606C125.007 158.529 126.087 158.866 128.496 160.032C143.414 168.468 158.151 178.24 172.872 187.056C176.581 189.277 188.517 197.696 191.401 198.513C191.121 203.389 191.031 207.494 191.056 212.381C201.28 214.961 213.176 210.7 220.177 222.834C221.471 225.078 220.91 226.865 222 228.959C220.97 229.886 220.785 230.006 220.857 231.945C221.026 236.476 220.382 246.395 221.663 250.194C214.718 264.085 207.495 262.555 193.834 262.416C193.599 258.365 193.774 254.25 193.877 250.188C198.714 245.632 211.356 236.526 211.368 230.219C211.401 213.802 189.898 218.958 180.986 218.45C184.312 217.954 188.033 218.469 190.953 217.727C191.039 217.705 191.893 213.912 190.141 212.733C182.709 212.941 174.958 211.773 169.127 217.624C165.005 221.761 164.104 224.508 163.901 230.067C164.117 237.689 163.733 244.993 164.26 252.674C159.196 248.867 137.703 231.341 133.042 231.201C122.827 233.789 111.249 235.334 100.57 237.992C106.56 230.156 113.43 223.254 119.298 215.334C111.959 217.224 90.3764 220.618 83.2684 221.193C92.6888 210.943 105.37 199.344 113.801 189.252C104.889 192.3 93.6014 195.093 84.0116 198.207C96.2242 185.017 111.68 169.731 123.109 156.606Z"/><path fill="#3A266B" d="M123.109 156.606C125.007 158.529 126.087 158.866 128.496 160.032C127.457 163.113 126.453 166.212 125.333 169.266C121.204 180.527 118.939 192.33 115.813 203.884C127.33 209.771 138.27 216.324 149.58 222.539C152.338 224.054 161.222 229.161 163.901 230.067C164.117 237.689 163.733 244.993 164.26 252.674C159.196 248.867 137.703 231.341 133.042 231.201C122.827 233.789 111.249 235.334 100.57 237.992C106.56 230.156 113.43 223.254 119.298 215.334C111.959 217.224 90.3764 220.618 83.2684 221.193C92.6888 210.943 105.37 199.344 113.801 189.252C104.889 192.3 93.6014 195.093 84.0116 198.207C96.2242 185.017 111.68 169.731 123.109 156.606Z"/><path fill="#F7113B" d="M140.006 175.843C148.675 179.775 168.589 196.782 173.594 204.584C165.37 203.058 157.673 199.888 149.508 197.898C147.803 197.458 146.108 196.982 144.423 196.471C143.562 193.706 142.894 190.853 142.354 188.008L141.367 183.507C140.806 180.89 140.235 178.539 140.006 175.843Z"/><path fill="#5D31D5" d="M132.938 238.322C139.039 241.696 153.727 257.95 160.069 263.631L160.061 305.978C160.049 312.03 160.474 324.307 159.289 329.682C158.463 333.558 156.575 337.128 153.837 339.993C147.772 346.264 140.884 346.935 132.85 347.486C133.333 328.409 132.97 307.892 132.872 288.756L132.938 238.322Z"/><path fill="#5D31D5" d="M163.901 230.067C164.104 224.508 165.005 221.761 169.127 217.624C174.958 211.773 182.709 212.941 190.141 212.733C191.893 213.912 191.039 217.705 190.953 217.727C188.033 218.469 184.312 217.954 180.986 218.45C178.486 218.548 176.843 219.877 175.144 221.643C167.269 229.825 173.52 236.295 180.505 241.996C180.089 245.741 179.848 257.618 179.207 261.921C179.165 262.202 177.945 262.365 177.56 262.426C168.651 260.362 169.862 258.16 164.26 252.674C163.733 244.993 164.117 237.689 163.901 230.067Z"/><path fill="#23173F" d="M180.505 241.996C182.559 243.603 188.322 248.643 190.312 250.478C190.227 254.544 189.982 257.899 190.005 262.046C187.631 262.218 179.362 262.906 177.56 262.426C177.945 262.365 179.165 262.202 179.207 261.921C179.848 257.618 180.089 245.741 180.505 241.996Z"/><path d="M560.903 652.326C567.64 646.451 591.953 620.372 597.735 618.823C604.877 616.911 618.972 618.192 626.859 618.065C626.91 624.634 627.072 631.566 626.958 638.106C618.165 646.558 609.505 655.148 600.982 663.872C590.282 663.769 577.577 663.419 566.988 663.893C567.504 665.309 568.47 667.713 568.797 669.087C571.788 679.94 571.195 702.901 570.895 714.798C570.953 719.114 571.049 723.427 570.914 727.742C571.356 760.48 570.667 793.367 570.934 826.121C570.963 829.605 571.308 843.558 570.693 845.83C570.11 858.507 565.496 870.666 557.523 880.538C547.578 892.902 533.029 900.685 517.225 902.094C501.289 903.577 485.422 898.627 473.156 888.346C459.302 876.68 453.916 862.212 452.495 844.606L452.524 735.038C452.327 724.004 452.511 712.848 452.5 701.802C452.489 690.614 451.772 680.049 454.569 669.144L456.629 663.602C458.905 660.402 459.723 656.544 463.075 652.223C466.688 648.278 470.542 644.798 474.56 641.288L479.614 637.872C490.57 632.252 503.679 628.154 516.117 629.9C526.792 630.67 535.045 633.038 544.327 638.45C546.009 639.777 547.342 641.034 549.328 641.797C553.442 645.346 557.088 648.441 560.903 652.326Z"/><path fill="#23173F" d="M560.903 652.326C567.64 646.451 591.953 620.372 597.735 618.823C604.877 616.911 618.972 618.192 626.859 618.065C626.91 624.634 627.072 631.566 626.958 638.106C618.165 646.558 609.505 655.148 600.982 663.872C590.282 663.769 577.577 663.419 566.988 663.893C567.504 665.309 568.47 667.713 568.797 669.087C563.822 669.723 559.086 669.389 554.136 669.57C550.323 671.672 545.997 675.765 542.575 678.584C531.86 687.41 522.246 697.511 511.274 706.009C509.911 705.516 473.338 672.2 470.731 669.475C465.305 669.465 459.986 669.518 454.569 669.144L456.629 663.602C458.905 660.402 459.723 656.544 463.075 652.223C466.688 648.278 470.542 644.798 474.56 641.288L479.614 637.872C490.57 632.252 503.679 628.154 516.117 629.9C526.792 630.67 535.045 633.038 544.327 638.45C546.009 639.777 547.342 641.034 549.328 641.797C553.442 645.346 557.088 648.441 560.903 652.326Z"/><path fill="#5D31D5" d="M479.614 637.872C490.57 632.252 503.679 628.154 516.117 629.9C514.364 629.931 513.045 629.65 511.736 630.395C511.222 636.001 511.493 645.138 511.497 650.971L511.523 688.422C511.52 693.088 511.722 701.656 511.274 706.009C509.911 705.516 473.338 672.2 470.731 669.475C465.305 669.465 459.986 669.518 454.569 669.144L456.629 663.602C458.905 660.402 459.723 656.544 463.075 652.223C466.688 648.278 470.542 644.798 474.56 641.288L479.614 637.872Z"/><path d="M598.864 633.036C607.024 632.712 616.404 632.933 624.592 633.211C620.371 636.916 602.182 655.495 599.496 656.5C590.513 656.696 581.602 656.732 572.62 657.101C578.201 652.016 583.825 646.989 589.389 641.885C592.025 639.466 595.262 635.492 598.083 633.587L598.864 633.036Z"/><path fill="#23173F" d="M570.5 734.457C570.598 732.217 570.736 729.978 570.914 727.742C571.356 760.48 570.667 793.367 570.934 826.121C570.963 829.605 571.308 843.558 570.693 845.83C570.059 844.254 568.754 844.713 566.68 844.641C559.708 844.399 552.845 842.126 547.977 836.903C545.595 834.339 543.921 831.201 543.118 827.795C541.665 821.624 541.986 807.465 541.995 800.46C541.993 787.406 542.083 774.351 542.266 761.297C547.189 755.177 564.012 740.282 570.5 734.457Z"/><path fill="#5D31D5" d="M452.524 735.038L452.962 734.94C457.201 738.415 475.939 756.361 479.644 760.716L479.917 802.6C479.946 808.629 480.468 821.31 479.3 826.667C478.44 830.587 476.533 834.199 473.781 837.119C468.258 842.99 461.308 844.579 453.616 844.614C453.242 844.615 452.869 844.612 452.495 844.606L452.524 735.038Z"/><path fill="#130C1F" d="M568.797 669.087C571.788 679.94 571.195 702.901 570.895 714.798C570.051 711.546 570.329 705.93 570.321 702.309C558.714 706.844 533.523 735.721 520.899 743.865C523.332 740.195 528.423 733.765 522.912 730.272C518.704 727.605 512.9 728.885 508.31 729.049C509.547 728.719 509.752 728.618 510.915 728.063C511.502 724.322 511.245 710.491 511.274 706.009C522.246 697.511 531.86 687.41 542.575 678.584C545.997 675.765 550.323 671.672 554.136 669.57C559.086 669.389 563.822 669.723 568.797 669.087Z"/><path fill="#08F7FE" d="M550.476 679.559C551.126 680.514 550.911 699.169 551.086 702.199C543.222 708.568 536.168 716.092 528.073 722.078C526.912 721.037 527.499 702.165 527.479 699.39C533.095 693.384 543.75 684.643 550.476 679.559Z"/><path fill="#23173F" d="M454.569 669.144C459.986 669.518 465.305 669.465 470.731 669.475C473.338 672.2 509.911 705.516 511.274 706.009C511.245 710.491 511.502 724.322 510.915 728.063C509.752 728.618 509.547 728.719 508.31 729.049C493.864 728.819 496.897 734.651 502.615 744.144C491.522 736.227 482.262 726.154 471.757 717.569C465.323 712.31 459.465 706.556 453.15 701.283C452.981 711.541 452.531 724.801 452.962 734.94L452.524 735.038C452.327 724.004 452.511 712.848 452.5 701.802C452.489 690.614 451.772 680.049 454.569 669.144Z"/><path fill="#08F7FE" d="M471.661 679.3C476.027 681.664 491.518 695.397 495.226 699.484C495.731 706.547 495.522 715.22 495.467 722.384C493.327 721.418 474.121 704.081 471.546 701.478C471.485 694.466 471.341 686.236 471.661 679.3Z"/><path fill="#23173F" d="M885.41 116.57L886.162 115.758C887.824 117.906 887.546 164.402 888.717 171.366C890.661 182.924 897.451 193.199 900.942 203.824C902.926 204.392 905.508 205.048 907.408 205.712L905.368 206.715C901.623 206.358 897.46 206.362 893.689 206.429C900.4 211.926 904.066 213.107 910.737 217.482C905.478 217.524 899.895 217.513 894.666 217.843L889.405 224.279L889.343 312.616L889.397 338.075C889.396 340.198 889.526 347.664 889.255 349.542C887.213 379.537 863.788 404.071 833.422 405.518C817.798 406.133 802.55 400.623 790.929 390.16C778.69 378.962 772.655 363.969 771.922 347.583L771.856 237.318L771.911 225.317C770.155 222.804 768.431 220.269 766.739 217.712C761.466 217.563 755.873 217.596 750.574 217.547C753.687 215.713 764.662 209.84 765.93 207.174C765.086 206.222 764.745 206.55 762.982 206.436C761.516 205.446 760.612 205.299 758.992 204.339C762.987 199.943 763.303 194.244 765.573 189.769C772.462 176.187 772.321 171.368 772.88 156.696C773.34 144.633 772.895 129.374 774.347 117.55L774.415 117.038L774.819 116.118C777.057 117.494 779.227 119.982 781.228 121.767C789.052 128.749 795.793 137.308 803.843 143.957C813.186 142.323 819.556 141.06 829.013 140.736C837.307 141.057 849.313 141.668 857.1 144.625C866.679 136.492 875.769 124.959 885.41 116.57Z"/><path d="M888.83 224.126L888.87 236.51C880.553 245.82 868.529 255.089 861.078 263.949C860.485 269.219 860.414 275.079 860.527 280.523C860.86 296.545 859.727 313.049 861.624 328.977C862.017 332.275 863.97 335.963 865.968 338.52C872.26 346.118 879.426 346.715 888.381 347.732C888.849 347.786 889.108 348.954 889.255 349.542C887.213 379.537 863.788 404.071 833.422 405.518C817.798 406.133 802.55 400.623 790.929 390.16C778.69 378.962 772.655 363.969 771.922 347.583L771.856 237.318L771.911 225.317C777.735 231.768 782.163 235.739 788.615 241.374C801.536 252.657 808.846 259.385 826.369 260.722C850.74 264.708 872.596 239.095 888.83 224.126Z"/><path fill="#5D31D5" d="M771.856 237.318C779.677 243.103 791.711 256.093 799.374 263.391L799.436 305.948C799.451 311.806 799.996 324.062 798.875 329.203C797.948 333.517 795.777 337.464 792.631 340.558C786.975 346.031 779.438 347.179 771.922 347.583L771.856 237.318Z"/><path fill="#5D31D5" d="M774.415 117.038L774.819 116.118C777.057 117.494 779.227 119.982 781.228 121.767C789.052 128.749 795.793 137.308 803.843 143.957C813.186 142.323 819.556 141.06 829.013 140.736C829.011 161.359 829.013 181.982 829.014 202.605C829.015 204.92 829.408 215.041 828.569 216.354L827.551 216.655L827.489 217.06C824.162 217.121 822.233 215.849 821.55 218.933C830.551 236.399 828.592 226.893 828.935 246.937C827.605 247.737 818.209 253.362 818.163 253.774C817.559 259.2 827.827 250.664 829.187 249.71C829.163 252.959 829.474 256.884 828.702 259.854C827.733 260.714 827.695 260.586 826.369 260.722C808.846 259.385 801.536 252.657 788.615 241.374C782.163 235.739 777.735 231.768 771.911 225.317C770.155 222.804 768.431 220.269 766.739 217.712C761.466 217.563 755.873 217.596 750.574 217.547C753.687 215.713 764.662 209.84 765.93 207.174C765.086 206.222 764.745 206.55 762.982 206.436C761.516 205.446 760.612 205.299 758.992 204.339C762.987 199.943 763.303 194.244 765.573 189.769C772.462 176.187 772.321 171.368 772.88 156.696C773.34 144.633 772.895 129.374 774.347 117.55L774.415 117.038Z"/><path fill="#23173F" d="M783.574 183.944C792.872 187.217 805.014 190.299 814.608 192.768C817.173 199.491 819.72 210.118 822.397 215.916C823.894 216.796 825.756 216.619 827.551 216.655L827.489 217.06C824.162 217.121 822.233 215.849 821.55 218.933C819.975 216.67 794.829 213.127 790.87 210.745C784.788 207.085 777.007 198.197 771.896 193.059C775.714 190.282 779.689 186.884 783.574 183.944Z"/><path fill="#FEFEFE" d="M781.383 191.244C784.837 191.678 787.846 192.727 791.23 193.502L797.008 194.878C797.713 195.041 798.555 195.25 799.258 195.4L801.507 195.892C802.343 196.058 803.173 196.241 804.005 196.428L809.601 197.532C812.371 202.773 814.794 207.378 817.187 212.817C812.332 212.311 807.514 211.492 802.764 210.366C795.285 208.542 793.139 208.219 788.28 201.914C785.287 198.028 783.68 195.6 781.383 191.244Z"/><path d="M775.171 122.99L777.002 120.939L777.34 121.963C781.008 131.041 785.943 141.884 790.104 150.842C785.293 155.46 782.206 158.904 778.219 164.175C777.742 157.009 777.407 149.928 776.858 142.751C776.459 137.524 775.426 129.828 775.558 124.872L775.171 122.99Z"/><path fill="#130C1F" d="M775.171 122.99L777.002 120.939L777.34 121.963C776.209 123.307 776.258 123.29 775.558 124.872L775.171 122.99Z"/><path fill="#23173F" d="M774.415 117.038C776.226 118.994 775.851 118.606 777.002 120.939L775.171 122.99C774.784 120.51 774.559 119.657 774.415 117.038Z"/><path d="M885.41 116.57C885.181 117.625 884.886 118.751 884.703 119.796C885.424 123.826 884.673 128.993 884.621 133.224C884.489 143.91 883.454 154.098 883.42 164.83C878.83 159.448 875.522 155.694 870.227 151.017C866.402 148.279 861.648 145.814 857.1 144.625C866.679 136.492 875.769 124.959 885.41 116.57Z"/><path fill="#5D31D5" d="M885.41 116.57C885.181 117.625 884.886 118.751 884.703 119.796C879.646 129.537 874.763 140.893 870.227 151.017C866.402 148.279 861.648 145.814 857.1 144.625C866.679 136.492 875.769 124.959 885.41 116.57Z"/><path d="M827.489 217.06C837.501 216.655 843.865 215.916 835.259 226.019C829.838 232.383 830.609 239.234 831.452 247.056C833.606 247.907 844.513 252.421 843.462 255.425C841.528 256.704 832.428 250.676 829.187 249.71C827.827 250.664 817.559 259.2 818.163 253.774C818.209 253.362 827.605 247.737 828.935 246.937C828.592 226.893 830.551 236.399 821.55 218.933C822.233 215.849 824.162 217.121 827.489 217.06Z"/><path fill="#FEFEFE" d="M878.482 191.639C879.941 192.608 871.201 205.468 870.09 207.237C868.399 207.721 866.721 208.214 865.007 208.617L863.008 209.101C857.24 210.576 851.446 211.946 845.628 213.21C844.254 211.526 850.611 200.501 851.756 197.98C857.007 196.813 862.063 195.356 867.269 194.154L878.482 191.639Z"/><path fill="#5D31D5" d="M146.691 57.3772L147.28 56.7022C148.098 57.8668 148.033 57.9342 148.423 59.3323C153.124 70.5147 155.952 83.4025 160.04 94.8906C162.878 102.864 164.5 111.637 167.796 119.454C175.181 117.527 183.916 115.355 191.575 115.469C191.592 142.636 192.045 171.112 191.55 198.202L191.401 198.513C188.517 197.696 176.581 189.277 172.872 187.056C158.151 178.24 143.414 168.468 128.496 160.032C126.087 158.866 125.007 158.529 123.109 156.606C119.259 151.951 115.636 146.207 112.921 140.819C114.423 136.267 117.499 129.626 119.371 124.819L133.911 87.8804C136.201 82.2212 144.028 61.8139 146.691 57.3772Z"/><path d="M146.691 57.3772L147.28 56.7022C148.098 57.8668 148.033 57.9342 148.423 59.3323C147.606 63.16 157.839 114.831 159.248 123.273C146.038 130.872 141.263 139.151 131.556 145.824C132.431 138.174 134.573 129.307 135.822 121.501C138.084 107.356 140.469 93.1289 142.748 78.9922C143.579 73.8358 146.855 61.8106 146.691 57.3772Z"/><path fill="#3A266B" d="M397.036 618.122C405.577 618.214 418.887 616.911 426.799 618.662C433.51 620.147 456.459 645.896 463.075 652.223C459.723 656.544 458.905 660.402 456.629 663.602C445.544 663.491 434.457 663.475 423.372 663.552C415.024 655.689 404.894 646.183 397.037 637.935L397.036 618.122Z"/><path d="M399.545 632.951L427.202 632.968C434.6 639.394 444.374 649.569 451.956 656.637C443.235 656.422 434.069 656.539 425.315 656.517C415.932 648.348 410.007 641.107 399.545 632.951Z"/><path fill="#5D31D5" d="M637.004 545.37C636.954 538.461 636.075 498.61 637.647 495.641C638.918 494.565 638.967 494.322 640.628 494.124C644.025 496.419 642.857 510.369 642.86 514.542C642.845 525.403 642.892 536.264 643.002 547.124C623.303 567.294 603.479 587.34 583.53 607.262C572.075 618.758 560.888 630.406 549.328 641.797C547.342 641.034 546.009 639.777 544.327 638.45C548.895 633.802 553.585 629.275 558.393 624.876L558.443 579.996C558.456 573.73 558.729 562.175 558.208 556.19C560.249 558.2 561.962 559.807 563.749 562.068C564.273 580.687 563.978 600.456 564.029 619.161C573.948 609.198 585.756 597.914 594.704 587.329C594.863 574.406 594.89 561.482 594.785 548.558C594.771 542.529 594.608 536 594.97 529.998C595.078 528.196 595.223 528.362 596.244 527.347C598.103 526.953 597.97 526.925 599.724 527.644C601.51 529.996 600.498 575.262 600.574 582.207L637.004 545.37Z"/><path fill="#5D31D5" d="M381.657 547.811C380.802 532.386 382.005 516.31 381.387 500.827C381.278 498.115 381.186 495.764 383.739 494.402C385.71 494.666 384.828 494.322 386.464 495.535C388.077 498.682 387.466 538.459 387.463 545.281C390.837 549.256 395.782 553.997 399.478 557.801C407.657 566.245 415.902 574.625 424.211 582.94C424.119 567.318 424.134 551.69 424.103 536.067C424.097 532.526 423.283 528.35 426.809 526.843C428.817 527.092 428.051 526.661 429.346 527.835C429.847 529.953 429.623 544.007 429.587 547.533C429.451 560.691 430.091 574.619 429.668 587.676C439.85 598.55 450.784 609.005 460.996 619.989C460.672 600.405 460.633 580.818 460.879 561.232C462.605 559.404 464.671 557.477 466.487 555.701L466.464 625.215C471.072 629.628 475.1 633.204 479.614 637.872L474.56 641.288C468.61 634.494 456.613 623.153 449.803 616.209L381.657 547.811Z"/><path d="M193.39 950.722C195.56 950.08 197.908 950.656 199.534 952.23C201.161 953.803 201.814 956.13 201.245 958.32C200.675 960.511 198.971 962.225 196.784 962.807C193.467 963.689 190.056 961.743 189.128 958.438C188.199 955.133 190.098 951.696 193.39 950.722Z"/><path fill="#FEFEFE" d="M199.091 953.324C200.817 955.335 200.735 958.329 198.901 960.242C197.066 962.156 194.079 962.365 191.996 960.725C189.913 959.086 189.415 956.133 190.844 953.901C192.274 951.669 195.164 950.886 197.525 952.091C198.077 952.476 198.572 952.898 199.091 953.324Z"/><path d="M187.86 454.124C190.029 453.458 192.388 454.016 194.028 455.584C195.667 457.151 196.331 459.483 195.763 461.679C195.195 463.875 193.483 465.593 191.289 466.168C187.993 467.033 184.609 465.103 183.676 461.825C182.743 458.547 184.602 455.125 187.86 454.124Z"/><path fill="#FEFEFE" d="M188.267 455.147C190.967 454.376 193.788 455.91 194.607 458.597C195.426 461.283 193.942 464.13 191.271 464.997C189.5 465.572 187.557 465.146 186.189 463.884C184.821 462.621 184.241 460.718 184.671 458.907C185.102 457.096 186.477 455.659 188.267 455.147Z"/><path d="M486.16 950.471C490.627 950.476 495.936 949.591 497.232 955.195C497.715 957.279 497.386 958.978 496.149 960.727L495.568 961.566C491.944 963.065 490.482 962.755 486.325 962.864C486.278 958.799 486.337 954.507 486.16 950.471Z"/><path fill="#FEFEFE" d="M487.48 951.551C493.67 951.509 499.246 953.079 495.16 960.539C485.262 964.782 487.445 958.559 487.48 951.551Z"/><path d="M509.254 454.275C512.402 453.107 515.904 454.68 517.123 457.808C518.342 460.936 516.827 464.463 513.719 465.733C511.663 466.573 509.314 466.24 507.574 464.86C505.833 463.481 504.972 461.27 505.32 459.076C505.668 456.883 507.172 455.048 509.254 454.275Z"/><path fill="#FEFEFE" d="M506.486 458.501C507.257 456.04 509.762 454.559 512.291 455.069C514.819 455.578 516.555 457.914 516.313 460.482C516.071 463.049 513.93 465.02 511.351 465.049C508.772 465.077 506.588 463.155 506.289 460.593C506.247 459.602 506.283 459.476 506.486 458.501Z"/><path fill="#808183" d="M506.289 460.593C506.247 459.602 506.283 459.476 506.486 458.501C506.274 459.177 506.207 459.89 506.289 460.593Z"/><path d="M805.696 950.52C809.257 950.482 818.22 950.104 813.681 956.286C814.489 958.61 815.694 956.371 815.578 961.461C811.856 963.256 809.739 962.903 805.625 962.768C805.609 958.685 805.633 954.602 805.696 950.52Z"/><path fill="#FEFEFE" d="M806.989 956.333C806.958 952.086 805.986 951.024 811.01 951.597C811.776 951.684 812.778 952.154 813.192 952.841C813.475 953.307 813.55 953.87 813.4 954.395C813.198 955.107 812.589 955.668 812.111 956.192C810.031 956.635 809.072 956.819 806.989 956.333Z"/><path fill="#808183" d="M806.989 956.333C809.384 955.87 809.631 955.979 812.111 956.192C810.031 956.635 809.072 956.819 806.989 956.333Z"/><path fill="#FEFEFE" d="M808.105 957.253C811.1 957.195 816.137 956.827 813.575 961.469C812.502 961.513 807.689 961.927 807.287 961.196C806.812 960.334 806.276 957.918 808.105 957.253Z"/><path d="M847.608 950.49C853.194 950.455 861.315 950.697 854.971 958.755C854.588 959.242 857.145 962.229 857.171 962.786C856.741 963.176 856.302 963.001 855.815 962.816C855.09 961.525 854.214 958.955 852.522 958.563C846.511 957.169 849.723 961.174 848.208 962.612C847.927 962.669 848.065 962.682 847.794 962.57C847.253 961.883 847.58 952.031 847.608 950.49Z"/><path fill="#FEFEFE" d="M848.617 951.594C854.309 951.458 856.522 951.008 855.488 957.437C847.643 958.486 848.56 957.757 848.617 951.594Z"/><path d="M528.054 950.588C530.368 950.517 534.643 949.85 536.464 951.754C540.123 955.76 534.724 957.194 535.587 959.426C536.029 960.568 538.455 962.298 536.418 962.73C535.456 961.3 534.806 958.888 533.035 958.454C527.272 957.043 529.816 961.765 528.671 962.485L528.317 962.309C527.898 961.658 527.967 960.458 527.973 959.694L528.054 950.588Z"/><path fill="#FEFEFE" d="M529.121 951.637C534.373 951.435 537.143 950.956 535.701 957.325C528.353 957.388 529.073 958.441 529.121 951.637Z"/><path d="M175.958 950.513C179.398 950.479 184.829 949.242 185.144 954.271C185.363 957.768 181.972 957.351 183.025 959.371C183.234 959.773 185.624 961.953 184.721 962.609C181.814 962.367 185.265 958.518 177.011 958.526C177.041 960.222 177.31 960.798 176.415 962.149C175.425 960.343 175.91 952.964 175.958 950.513Z"/><path fill="#595A5B" d="M177.011 958.526C177.041 960.222 177.31 960.798 176.415 962.149C176.561 960.634 176.676 960.001 177.011 958.526Z"/><path fill="#FEFEFE" d="M176.926 951.563C182.222 951.479 184.594 950.64 183.726 956.87C176.208 959.124 176.922 957.182 176.926 951.563Z"/><path d="M837.182 950.096C839.64 951.044 843.62 961.691 843.536 962.738C843.375 962.958 843.483 962.889 843.211 962.941C841.31 961.889 842.382 959.315 839.625 959.431C832.517 959.508 834.99 959.056 831.015 965.01C832.889 959.966 834.946 954.991 837.182 950.096Z"/><path fill="#FEFEFE" d="M837.607 951.774C838.77 952.93 841.548 957.519 838.966 958.665C832.996 958 835.302 958.011 837.607 951.774Z"/><path d="M828.185 463.304C833.027 451.991 832.756 450.651 837.799 462.687C837.997 463.16 839.026 465.163 838.2 465.519C837.417 465.37 837.197 463.056 836.002 463.049C833.935 463.038 831.179 462.638 829.257 463.421L828.185 463.304Z"/><path fill="#FEFEFE" d="M833.128 455.423C834.249 456.937 837.206 461.281 834.582 462.255C833.966 462.182 833.349 462.121 832.731 462.07C828.619 461.747 830.91 459.726 832.695 456.278L833.128 455.423Z"/><path d="M162.446 453.804C164.537 455.082 166.297 461.888 167.182 464.477C168.614 460.624 169.645 457.125 171.272 453.291C172.988 456.811 174.229 460.251 175.553 463.932L175.721 463.546C176.447 461.916 178.229 455.325 179.436 454.69C179.544 454.633 179.691 454.646 179.793 454.711C179.905 454.784 179.963 455.251 179.965 455.261C178.575 459.412 177.245 462.826 175.717 466.85L175.295 465.936C173.837 462.69 172.667 459.395 171.431 456.053L171.263 456.435C170.748 457.571 167.905 467.331 166.829 465.583C165.483 463.395 162.844 456.328 162.446 453.804Z"/><path d="M217.798 961.628C218.204 960.253 220.738 950.828 221.956 950.675C222.4 950.851 222.269 951.283 222.155 951.652L221.893 952.444C221.443 953.834 219.083 961.712 218.069 962.673C217.962 962.775 217.612 962.775 217.519 962.692C216.266 961.582 214.284 954.753 213.524 952.805C212.307 956.416 210.946 960.04 209.756 963.65L209.437 962.836C207.976 959.034 205.727 954.396 205.006 950.427C206.666 951.837 208.811 958.399 209.644 960.788C211.081 957.069 211.983 953.832 213.573 950.132C215.373 954.273 216.377 957.36 217.798 961.628Z"/><path d="M820.044 950.519L826 950.517C826.534 950.517 828.563 950.213 828.354 951.204C827.908 951.717 825.205 951.582 824.75 951.544C820.905 951.225 821.339 951.877 821.598 955.524C821.684 956.733 827.488 955.288 827.944 956.559C827.697 956.938 827.171 957.054 826.741 957.058L821.498 957.124C821.532 964.188 821.423 960.735 827.544 961.525C828.989 961.711 828.675 962.801 826.75 962.775C824.642 962.746 822.337 962.715 820.187 962.686C820.264 958.81 820.525 954.337 820.044 950.519Z"/><path d="M502.012 950.506C503.45 950.519 509.445 950.221 510.111 950.923L510.106 951.064C509.023 952.67 500.801 948.866 503.183 955.509C503.56 956.561 508.622 955.292 509.22 956.551C508.579 957.324 504.486 956.96 503.033 957.194C503.151 965.876 504.191 959.924 510.404 961.844L510.664 962.236L510.715 962.062C509.697 963.485 503.777 962.99 501.951 963.027L502.012 950.506Z"/><path fill="#3E3E40" d="M493.644 453.973C493.832 453.974 503.382 453.527 501.743 454.815C500.951 455.437 496.137 454.622 495.151 455.306C494.738 455.592 494.947 459.057 495.102 459.548C495.569 459.965 500.214 459.807 501.283 459.831C499.519 462.222 497.533 460.134 495.308 461.233C494.581 461.592 495.369 465.355 494.364 466.237C494.298 466.235 494.231 466.233 494.165 466.23C493.306 465.223 493.619 455.79 493.644 453.973Z"/><path d="M515.399 950.498L519.749 950.445C520.365 950.433 523.097 950.267 523.303 951.225C520.234 953.101 515.089 948.084 516.855 956.237L517.031 956.92L516.559 957.456C516.574 958.358 516.651 959.615 516.584 960.532C516.403 962.999 523.818 960.383 523.724 962.293C522.836 963.071 516.833 962.816 515.441 962.789C515.468 958.692 515.454 954.595 515.399 950.498Z"/><path fill="#3E3E40" d="M211.997 453.912C213.245 453.885 219.849 453.488 219.977 454.499C219.088 455.787 214.729 454.357 213.416 455.26C212.988 455.555 213.062 459.225 213.334 459.399C214.464 460.121 218.267 459.657 219.601 459.646C217.446 462.187 212.682 459.554 213.361 462.495C214.106 465.717 212.008 468.018 212.025 465.002L211.997 453.912Z"/><path d="M817.578 454.04C819.102 453.97 821.968 453.873 823.164 454.789C826.177 457.101 820.137 454.43 817.518 455.423C816.269 455.899 815.275 456.875 814.778 458.117C813.066 462.412 816.549 464.074 819.74 465.419C820.292 465.271 823.732 463.841 823.777 464.618C820.994 469.935 805.944 462.03 817.578 454.04Z"/><path d="M529.175 453.867C529.707 455.737 527.116 458.007 525.891 459.696C526.829 461.015 530.756 465.325 529.723 466.256L529.576 466.184L529.842 465.832L529.201 465.932C528.028 464.887 526.254 462.023 525.286 460.637C524.305 462.022 523.367 463.448 522.4 464.849C522.124 465.162 521.846 465.467 521.564 465.771L520.961 465.665L521.239 465.989L521.048 466.087C520.911 466.006 520.774 465.925 520.637 465.844C520.641 465.072 523.977 460.684 524.66 459.736C524.133 458.932 521.645 455.348 521.675 454.913C521.794 453.239 524.798 458.082 524.776 458.05L525.295 458.805C526.619 457.069 527.672 455.462 529.175 453.867Z"/><path d="M164.916 950.524C165.748 950.51 171.078 950.428 171.227 951.747L171.116 951.881C169.33 952.586 162.88 949.87 161.699 954.905C160.572 959.712 163.504 961.109 167.307 961.95C168.087 961.637 170.027 960.55 170.79 960.902L170.954 961.239L171.093 961.038C166.176 967.007 153.43 957.367 164.916 950.524Z"/><path fill="#595A5B" d="M200.874 454.627L201.438 453.929C202.416 456.209 202.017 462.647 201.878 465.297C203.125 465.117 207.074 464.807 207.94 465.748C208.03 466.901 201.573 466.482 200.549 466.485C200.549 463.977 200.342 456.556 200.874 454.627Z"/><path fill="#808183" d="M200.874 454.627L201.438 453.929C202.416 456.209 202.017 462.647 201.878 465.297L201.288 463.573C200.81 461.37 201.397 457.757 200.874 454.627Z"/><path fill="#3E3E40" d="M200.874 454.627L201.438 453.929C201.52 456.584 201.657 461.031 201.288 463.573C200.81 461.37 201.397 457.757 200.874 454.627Z"/><path fill="#3E3E40" d="M839.86 454.246C841.182 454.122 848.645 453.534 849.087 454.492C848.924 455.832 845.563 454.056 845.511 455.983C845.445 458.362 845.49 460.744 845.479 463.125C845.469 463.68 845.625 465.963 844.674 466.028C843.423 464.311 844.707 457.573 843.902 455.496C843.847 455.354 840.78 454.717 839.86 454.246Z"/><path fill="#3A266B" d="M753.114 206.181C755.004 205.679 756.261 205.261 758.094 204.636L758.992 204.339C760.612 205.299 761.516 205.446 762.982 206.436C759.87 206.615 756.15 206.778 753.091 207.237L753.114 206.181Z"/><path fill="#3E3E40" d="M516.855 956.237C519.253 956.151 521.478 955.687 523.295 956.947C520.857 957.839 519.277 957.457 516.559 957.456L517.031 956.92L516.855 956.237Z"/><path fill="#808183" d="M517.031 956.92C519.189 956.938 521.121 957.02 523.295 956.947C520.857 957.839 519.277 957.457 516.559 957.456L517.031 956.92Z"/><path fill="#3E3E40" d="M907.408 205.712C907.903 205.843 910.256 206.351 910.517 206.798C909.818 207.379 906.269 206.836 905.368 206.715L907.408 205.712Z"/><path fill="#808183" d="M753.091 207.237C752.493 207.345 750.417 207.864 749.92 207.307L749.934 207.251C750.687 206.595 752.164 206.402 753.114 206.181L753.091 207.237Z"/><path fill="#3E3E40" d="M829.257 463.421C827.711 466.844 826.874 466.594 828.185 463.304L829.257 463.421Z"/></svg>
